<svg width="40" height="40" viewBox="0 0 40 40" fill="none" xmlns="http://www.w3.org/2000/svg">
<path d="M25 6.66671V3.33337M25 6.66671V10M25 6.66671H17.5M5 16.6667V31.6667C5 32.5508 5.35119 33.3986 5.97631 34.0237C6.60143 34.6488 7.44928 35 8.33333 35H31.6667C32.5507 35 33.3986 34.6488 34.0237 34.0237C34.6488 33.3986 35 32.5508 35 31.6667V16.6667M5 16.6667H35M5 16.6667V10C5 9.11599 5.35119 8.26814 5.97631 7.64302C6.60143 7.0179 7.44928 6.66671 8.33333 6.66671H11.6667M35 16.6667V10C35 9.11599 34.6488 8.26814 34.0237 7.64302C33.3986 7.0179 32.5507 6.66671 31.6667 6.66671H30.8333M11.6667 3.33337V10" stroke="black" stroke-width="1.5" stroke-linecap="round" stroke-linejoin="round"/>
</svg>
